<?xml version="1.0" encoding="utf-8"?>
<!-- Generator: Adobe Illustrator 26.0.2, SVG Export Plug-In . SVG Version: 6.00 Build 0)  -->
<svg version="1.1" id="레이어_1" xmlns="http://www.w3.org/2000/svg" xmlns:xlink="http://www.w3.org/1999/xlink" x="0px"
	 y="0px" viewBox="0 0 1024 1024" style="enable-background:new 0 0 1024 1024;" xml:space="preserve">
<style type="text/css">
	.st0{fill:#1766FF;}
</style>
<g>
	<polygon class="st0" points="553.37,473.8 572.97,473.8 563.17,450.13 	"/>
	<path class="st0" d="M544.69,546.33c-14.92,0-26.06,10.87-26.06,25.62c0,14.75,11.13,25.62,26.06,25.62
		c14.84,0,25.88-10.87,25.88-25.62C570.57,557.2,559.53,546.33,544.69,546.33z"/>
	<path class="st0" d="M684.87,546.69h-18.29v50.52h18.29c16.43,0,27.03-10.43,27.03-25.26
		C711.89,557.11,701.29,546.69,684.87,546.69z"/>
	<path class="st0" d="M826.32,478.91c-1.9,0-3.74,0.19-5.62,0.28c3.62-12.03,5.62-24.77,5.62-37.98
		c0-72.73-58.96-131.69-131.69-131.69c-14.95,0-29.26,2.61-42.65,7.2c-29.42-73.68-101.39-125.77-185.57-125.77
		c-98.05,0-179.45,70.67-196.41,163.82c38.35,3.5,75.27,19.92,103.54,47.82c3.05,3.02,3.08,7.94,0.07,10.99
		c-3.02,3.05-7.93,3.09-10.99,0.07c-41.91-41.37-104.75-55.11-160.05-34.99c-23.46,8.53-43.46,22.32-59.41,39.44
		c-23.77,28.85-38.08,65.78-38.08,106.1c0,92.33,74.85,167.18,167.18,167.18h20.85h289.16c-2.67-6.51-5.19-13.3-7.33-20.71
		c-1.19-4.12,1.19-8.43,5.31-9.62c4.14-1.17,8.43,1.19,9.62,5.31c2.76,9.57,6.12,18.21,9.82,26.16
		c32.03,62.98,78.15,72.47,78.15,72.47c-3.77-28.27-3.41-55.08-2.31-73.61h150.79c58.68,0,106.24-47.57,106.24-106.24
		C932.56,526.47,884.99,478.91,826.32,478.91z M196.79,536.23c-9.52,0-17.24-7.72-17.24-17.24s7.72-17.24,17.24-17.24
		c9.52,0,17.24,7.72,17.24,17.24S206.31,536.23,196.79,536.23z M297.43,536.23c-9.52,0-17.24-7.72-17.24-17.24
		s7.72-17.24,17.24-17.24c9.52,0,17.24,7.72,17.24,17.24S306.95,536.23,297.43,536.23z M432.19,597.57c7.06,0,13.25-2.21,18.28-7.42
		l4.15,4.15c-5.47,6-13.6,9.1-22.69,9.1c-18.55,0-32.33-13.34-32.33-31.44c0-18.11,13.78-31.44,32.41-31.44
		c9.01,0,17.14,3,22.61,9.01l-4.15,4.15c-5.03-5.12-11.21-7.33-18.28-7.33c-14.93,0-26.15,10.95-26.15,25.62
		C406.04,586.61,417.26,597.57,432.19,597.57z M432.72,486.78c6.18,0,11.39-2.47,15.54-7.33l9.19,8.48
		c-5.83,7.15-14.75,11.04-25.53,11.04c-19.17,0-33.48-13.34-33.48-31.98c0-18.64,14.31-31.97,33.56-31.97
		c10.69,0,19.61,3.88,25.44,10.95l-9.19,8.48c-4.15-4.77-9.36-7.25-15.54-7.25c-11.57,0-19.79,8.13-19.79,19.79
		C412.93,478.66,421.15,486.78,432.72,486.78z M466.23,436.09h14.31v24.37h28.09v-24.37h14.3v61.82h-14.3v-25.35h-28.09v25.35
		h-14.31V436.09z M508.89,602.86h-41.16v-61.82h6.53v56.17h34.63V602.86z M544.69,603.39c-18.73,0-32.51-13.43-32.51-31.44
		c0-18.02,13.78-31.44,32.51-31.44c18.55,0,32.41,13.33,32.41,31.44C577.11,590.05,563.24,603.39,544.69,603.39z M582.95,497.91
		l-5.47-13.25h-28.71l-5.47,13.25h-14.67l27.56-61.82h14.14l27.64,61.82H582.95z M641.2,576.45c0,17.76-9.55,26.94-25.35,26.94
		c-15.81,0-25.44-9.19-25.44-26.94v-35.41h6.54v35.15c0,14.66,6.89,21.37,18.9,21.37c12.09,0,18.98-6.72,18.98-21.37v-35.15h6.37
		V576.45z M647.38,447.74H627.6v50.17h-14.31v-50.17h-19.78v-11.65h53.87V447.74z M653.43,436.09h53.87v11.65h-19.78v50.17h-14.31
		v-50.17h-19.78V436.09z M685.22,602.86h-25.18v-61.82h25.18c19.78,0,33.12,12.72,33.12,30.91
		C718.34,590.15,705.01,602.86,685.22,602.86z M747.97,476.01v21.91h-14.3v-22.08l-23.94-39.74h15.19l16.52,27.47l16.52-27.47H772
		L747.97,476.01z"/>
</g>
</svg>
