<?xml version="1.0" encoding="utf-8"?>
<!-- Generator: Adobe Illustrator 26.0.2, SVG Export Plug-In . SVG Version: 6.00 Build 0)  -->
<svg version="1.1" id="레이어_1" xmlns="http://www.w3.org/2000/svg" xmlns:xlink="http://www.w3.org/1999/xlink" x="0px"
	 y="0px" viewBox="0 0 1024 1024" style="enable-background:new 0 0 1024 1024;" xml:space="preserve">
<style type="text/css">
	.st0{fill:#1766FF;}
</style>
<g>
	<path class="st0" d="M886.8,510.55c-16.12-16.42-35.64-28.23-57-34.77c-0.01-10.08-0.98-20.2-2.93-30.32
		c-11.58-60.24-57.65-108.84-117.38-123.81c-12.75-3.2-25.77-4.82-38.68-4.82c-5.51,0-11.01,0.29-16.49,0.87
		c-39.26-66.53-110.52-107.98-189.66-107.98c-97.39,0-181.33,62.84-210.02,153.22c-39.74,7.21-75.99,26.8-104.32,56.79
		c-35.59,37.69-54.03,87.05-51.91,138.98c4.19,102.65,89.59,183.07,194.42,183.07h15.28h253.5c26.95,40.12,62.76,62.56,80.13,69.38
		c5.25,2.06,10.76,3.11,16.38,3.11c12.66,0,24.78-5.41,33.25-14.84c8.47-9.43,12.54-22.08,11.18-34.7
		c-0.35-3.23-0.72-6.44-1.09-9.65c-0.53-4.6-1.05-9.03-1.46-13.29h70.46h16.14c75.37,0,137.79-59.86,139.13-133.44
		C926.4,571.53,912.58,536.8,886.8,510.55z M885.73,607.61c-0.97,52.83-46.29,94.17-99.14,94.17h-16.14H661.56
		c-5.06,21.95-1.25,44.41,1.21,67.23c0.32,2.93-1.98,5.26-4.66,5.26c-0.58,0-1.17-0.11-1.76-0.34
		c-13.34-5.24-50.28-29.02-71.86-72.15H308.11h-15.28c-81.56,0-151.12-63.2-154.45-144.69c-3.43-84.04,61.9-153.37,144.29-156.94
		c1.41,0.27,2.86,0.41,4.35,0.36c28.23-0.58,55.83,8.1,78.17,24.81c3.59,2.69,7.8,3.98,11.96,3.98c6.09,0,12.1-2.77,16.03-8.02
		c6.62-8.84,4.81-21.38-4.04-28c-26.25-19.64-57.93-31.02-90.87-32.58c27.23-65.12,91.37-110.97,166.37-110.97
		c76.04,0,141.05,47.05,167.63,113.61c12.1-4.15,25.03-6.5,38.53-6.5c9.4,0,19.08,1.14,28.95,3.62
		c44.39,11.13,79.18,47.62,87.82,92.56c3.87,20.12,2.42,39.44-2.89,57.09c1.69-0.09,3.36-0.26,5.07-0.26
		C843.38,509.84,886.71,553.78,885.73,607.61z"/>
	<path class="st0" d="M224.92,512c-12.49,0-22.61,10.12-22.61,22.61s10.12,22.61,22.61,22.61s22.61-10.12,22.61-22.61
		S237.41,512,224.92,512z"/>
	<path class="st0" d="M340.68,512c-12.49,0-22.61,10.12-22.61,22.61s10.12,22.61,22.61,22.61s22.61-10.12,22.61-22.61
		S353.16,512,340.68,512z"/>
	<path class="st0" d="M429.42,472.66c5.99,0,11.02,2.39,15.04,7.01l8.89-8.2c-5.64-6.84-14.28-10.6-24.61-10.6
		c-18.63,0-32.48,12.91-32.48,30.94c0,18.03,13.85,30.93,32.39,30.93c10.42,0,19.06-3.76,24.7-10.68l-8.89-8.2
		c-4.02,4.7-9.06,7.09-15.04,7.09c-11.2,0-19.14-7.86-19.14-19.14C410.28,480.52,418.23,472.66,429.42,472.66z"/>
	<polygon class="st0" points="475.66,497.18 502.85,497.18 502.85,521.71 516.68,521.71 516.68,461.89 502.85,461.89 502.85,485.47 
		475.66,485.47 475.66,461.89 461.83,461.89 461.83,521.71 475.66,521.71 	"/>
	<path class="st0" d="M562.51,461.89h-13.67l-26.67,59.82h14.19l5.3-12.82h27.78l5.3,12.82h14.53L562.51,461.89z M546.1,498.38
		l9.49-22.9l9.49,22.9H546.1z"/>
	<polygon class="st0" points="584.91,473.17 604.05,473.17 604.05,521.71 617.9,521.71 617.9,473.17 637.04,473.17 637.04,461.89 
		584.91,461.89 	"/>
	<polygon class="st0" points="662,521.71 675.85,521.71 675.85,473.17 694.99,473.17 694.99,461.89 642.86,461.89 642.86,473.17 
		662,473.17 	"/>
	<polygon class="st0" points="727.99,488.46 712.01,461.89 697.31,461.89 720.47,500.35 720.47,521.71 734.32,521.71 734.32,500.52 
		757.56,461.89 743.97,461.89 	"/>
	<path class="st0" d="M428.91,568.51c6.84,0,12.82,2.13,17.69,7.09l4.02-4.02c-5.31-5.81-13.17-8.72-21.88-8.72
		c-18.03,0-31.37,12.91-31.37,30.43c0,17.52,13.34,30.43,31.28,30.43c8.8,0,16.66-2.99,21.96-8.81l-4.02-4.02
		c-4.87,5.04-10.85,7.18-17.69,7.18c-14.44,0-25.29-10.59-25.29-24.78C403.62,579.11,414.47,568.51,428.91,568.51z"/>
	<polygon class="st0" points="469.6,563.39 463.28,563.39 463.28,623.2 503.1,623.2 503.1,617.74 469.6,617.74 	"/>
	<path class="st0" d="M537.72,562.87c-18.11,0-31.45,12.99-31.45,30.43c0,17.43,13.34,30.43,31.45,30.43
		c17.95,0,31.37-12.91,31.37-30.43C569.09,575.78,555.66,562.87,537.72,562.87z M537.72,618.08c-14.44,0-25.21-10.52-25.21-24.78
		c0-14.28,10.77-24.78,25.21-24.78c14.36,0,25.04,10.51,25.04,24.78C562.76,607.56,552.08,618.08,537.72,618.08z"/>
	<path class="st0" d="M624.91,597.4c0,14.18-6.67,20.68-18.38,20.68c-11.63,0-18.29-6.5-18.29-20.68v-34.01h-6.32v34.27
		c0,17.17,9.31,26.07,24.61,26.07c15.3,0,24.53-8.89,24.53-26.07v-34.27h-6.15V597.4z"/>
	<path class="st0" d="M673.62,563.39h-24.35v59.82h24.35c19.14,0,32.05-12.31,32.05-29.91
		C705.67,575.69,692.77,563.39,673.62,563.39z M673.29,617.74h-17.7v-48.88h17.7c15.89,0,26.14,10.08,26.14,24.44
		C699.43,607.65,689.18,617.74,673.29,617.74z"/>
</g>
</svg>
