<?xml version="1.0" encoding="UTF-8" standalone="no"?> <!-- Created with Vectornator for iOS (http://vectornator.io/) --><!DOCTYPE svg PUBLIC "-//W3C//DTD SVG 1.1//EN" "http://www.w3.org/Graphics/SVG/1.1/DTD/svg11.dtd">
<svg height="100%" style="fill-rule:nonzero;clip-rule:evenodd;stroke-linecap:round;stroke-linejoin:round;" xmlns:xlink="http://www.w3.org/1999/xlink" xmlns="http://www.w3.org/2000/svg" xml:space="preserve" width="100%" xmlns:vectornator="http://vectornator.io" version="1.1" viewBox="0 0 1024 1024">
<metadata>
<vectornator:setting key="DynamicGuides" value="0"/>
<vectornator:setting key="SnapToPoints" value="0"/>
<vectornator:setting key="CMYKEnabledKey" value="0"/>
<vectornator:setting key="GuidesVisible" value="1"/>
<vectornator:setting key="SnapToGuides" value="1"/>
<vectornator:setting key="DimensionsVisible" value="1"/>
<vectornator:setting key="DisplayWhiteBackground" value="0"/>
<vectornator:setting key="RulersVisible" value="1"/>
<vectornator:setting key="SnapToGrid" value="0"/>
<vectornator:setting key="SnapToEdges" value="0"/>
<vectornator:setting key="IsolateActiveLayer" value="0"/>
<vectornator:setting key="doHistoryDisabled" value="0"/>
<vectornator:setting key="Units" value="Points"/>
<vectornator:setting key="OutlineMode" value="0"/>
<vectornator:setting key="PencilOnly" value="0"/>
<vectornator:setting key="TimeLapseWatermarkDisabled" value="0"/>
</metadata>
<defs/>
<g id="þÿ¸" vectornator:layerName="þÿ¸">
<g opacity="1">
<path d="M885.728+487.429C884.761+540.261+839.434+581.6+786.593+581.6L770.455+581.6L661.564+581.6C656.509+603.553+660.317+626.006+662.777+648.83C663.093+651.763+660.8+654.085+658.119+654.085C657.542+654.085+656.948+653.978+656.357+653.746C643.017+648.507+606.075+624.729+584.495+581.6L308.109+581.6L292.832+581.6C211.267+581.6+141.715+518.403+138.385+436.907C134.954+352.871+200.287+283.541+282.677+279.966C284.084+280.233+285.533+280.378+287.028+280.33C315.259+279.751+342.862+288.432+365.202+305.137C368.795+307.825+372.999+309.122+377.163+309.122C383.25+309.122+389.266+306.348+393.196+301.098C399.814+292.253+398.001+279.72+389.157+273.102C362.905+253.461+331.225+242.079+298.29+240.522C325.523+175.398+389.657+129.554+464.662+129.554C540.702+129.554+605.711+176.604+632.288+243.159C644.385+239.014+657.314+236.656+670.817+236.656C680.217+236.656+689.893+237.798+699.768+240.274C744.157+251.404+778.95+287.89+787.588+332.833C791.455+352.95+790.011+372.272+784.703+389.919C786.394+389.83+788.063+389.662+789.776+389.662C843.377+389.662+886.713+433.604+885.728+487.429M886.803+390.371C870.681+373.951+851.161+362.143+829.8+355.603C829.794+345.527+828.819+335.406+826.874+325.282C815.296+265.045+769.223+216.446+709.497+201.471C696.745+198.273+683.731+196.652+670.817+196.652C665.309+196.652+659.806+196.944+654.327+197.526C615.07+130.992+543.805+89.5489+464.662+89.5489C367.272+89.5489+283.333+152.388+254.645+242.77C214.907+249.982+178.65+269.568+150.323+299.564C114.728+337.256+96.2945+386.611+98.4145+438.539C102.608+541.193+188.005+621.605+292.832+621.605L308.109+621.605L561.61+621.605C588.555+661.721+624.365+684.161+641.735+690.982C646.984+693.044+652.498+694.09+658.119+694.09C670.781+694.09+682.9+688.682+691.368+679.251C699.835+669.824+703.912+657.174+702.552+644.547C702.203+641.32+701.831+638.105+701.458+634.897C700.924+630.297+700.409+625.864+699.996+621.605L770.455+621.605L786.593+621.605C861.965+621.605+924.379+561.742+925.726+488.161C926.4+451.35+912.577+416.621+886.803+390.371" opacity="1" fill="#1766ff"/>
<path d="M224.925+391.82C212.438+391.82+202.315+401.943+202.315+414.43C202.315+426.917+212.438+437.04+224.925+437.04C237.412+437.04+247.535+426.917+247.535+414.43C247.535+401.943+237.412+391.82+224.925+391.82" opacity="1" fill="#1766ff"/>
<path d="M340.676+391.82C328.189+391.82+318.066+401.943+318.066+414.43C318.066+426.917+328.189+437.04+340.676+437.04C353.163+437.04+363.286+426.917+363.286+414.43C363.286+401.943+353.163+391.82+340.676+391.82" opacity="1" fill="#1766ff"/>
<path d="M429.424+352.476C435.409+352.476+440.449+354.867+444.465+359.485L453.356+351.281C447.715+344.444+439.081+340.678+428.744+340.678C410.109+340.678+396.264+353.585+396.264+371.619C396.264+389.652+410.109+402.552+428.658+402.552C439.081+402.552+447.715+398.794+453.356+391.871L444.465+383.667C440.449+388.371+435.409+390.762+429.424+390.762C418.227+390.762+410.281+382.901+410.281+371.619C410.281+360.336+418.227+352.476+429.424+352.476" opacity="1" fill="#1766ff"/>
<path d="M475.663+377.002L502.846+377.002L502.846+401.528L516.683+401.528L516.683+341.709L502.846+341.709L502.846+365.29L475.663+365.29L475.663+341.709L461.826+341.709L461.826+401.528L475.663+401.528L475.663+377.002Z" opacity="1" fill="#1766ff"/>
<path d="M546.101+378.197L555.586+355.296L565.072+378.197L546.101+378.197ZM562.509+341.708L548.836+341.708L522.169+401.528L536.358+401.528L541.655+388.706L569.432+388.706L574.729+401.528L589.254+401.528L562.509+341.708Z" opacity="1" fill="#1766ff"/>
<path d="M584.91+352.991L604.053+352.991L604.053+401.528L617.898+401.528L617.898+352.991L637.041+352.991L637.041+341.708L584.91+341.708L584.91+352.991Z" opacity="1" fill="#1766ff"/>
<path d="M662.005+401.528L675.85+401.528L675.85+352.991L694.993+352.991L694.993+341.709L642.862+341.709L642.862+352.991L662.005+352.991L662.005+401.528Z" opacity="1" fill="#1766ff"/>
<path d="M727.989+368.282L712.011+341.709L697.314+341.709L720.473+380.166L720.473+401.528L734.318+401.528L734.318+380.338L757.563+341.709L743.967+341.709L727.989+368.282Z" opacity="1" fill="#1766ff"/>
<path d="M428.908+448.33C435.745+448.33+441.73+450.463+446.598+455.425L450.621+451.408C445.316+445.595+437.456+442.689+428.744+442.689C410.711+442.689+397.373+455.596+397.373+473.114C397.373+490.632+410.711+503.539+428.658+503.539C437.456+503.539+445.316+500.547+450.621+494.734L446.598+490.718C441.73+495.757+435.745+497.898+428.908+497.898C414.469+497.898+403.616+487.303+403.616+473.114C403.616+458.925+414.469+448.33+428.908+448.33" opacity="1" fill="#1766ff"/>
<path d="M469.6+443.205L463.279+443.205L463.279+503.024L503.096+503.024L503.096+497.555L469.6+497.555L469.6+443.205Z" opacity="1" fill="#1766ff"/>
<path d="M537.717+497.898C523.278+497.898+512.511+487.381+512.511+473.114C512.511+458.839+523.278+448.33+537.717+448.33C552.078+448.33+562.759+458.839+562.759+473.114C562.759+487.381+552.078+497.898+537.717+497.898M537.717+442.689C519.606+442.689+506.268+455.682+506.268+473.114C506.268+490.546+519.606+503.539+537.717+503.539C555.664+503.539+569.088+490.632+569.088+473.114C569.088+455.596+555.664+442.689+537.717+442.689" opacity="1" fill="#1766ff"/>
<path d="M624.907+477.216C624.907+491.397+618.234+497.898+606.53+497.898C594.904+497.898+588.239+491.397+588.239+477.216L588.239+443.204L581.918+443.204L581.918+477.474C581.918+494.648+591.231+503.539+606.53+503.539C621.829+503.539+631.056+494.648+631.056+477.474L631.056+443.204L624.907+443.204L624.907+477.216Z" opacity="1" fill="#1766ff"/>
<path d="M673.287+497.555L655.59+497.555L655.59+448.674L673.287+448.674C689.179+448.674+699.431+458.754+699.431+473.115C699.431+487.468+689.179+497.555+673.287+497.555M673.623+443.205L649.269+443.205L649.269+503.024L673.623+503.024C692.766+503.024+705.673+490.718+705.673+473.115C705.673+455.511+692.766+443.205+673.623+443.205" opacity="1" fill="#1766ff"/>
</g>
</g>
<g id="Layer 1" vectornator:layerName="Layer 1">
<g opacity="1">
<path d="M80.99+798.346L80.99+756.346L92.63+756.346L109.43+783.766L103.31+783.766L119.63+756.346L131.27+756.346L131.39+798.346L118.49+798.346L118.37+775.786L120.41+775.786L109.25+794.566L103.01+794.566L91.37+775.786L93.89+775.786L93.89+798.346L80.99+798.346Z" opacity="1" fill="#236eff"/>
<path d="M157.67+798.346L157.67+792.526L156.71+790.966L156.71+779.926C156.71+778.326+156.22+777.106+155.24+776.266C154.26+775.426+152.67+775.006+150.47+775.006C148.99+775.006+147.49+775.236+145.97+775.696C144.45+776.156+143.15+776.786+142.07+777.586L137.75+768.646C139.67+767.446+141.97+766.526+144.65+765.886C147.33+765.246+149.95+764.926+152.51+764.926C158.15+764.926+162.52+766.186+165.62+768.706C168.72+771.226+170.27+775.226+170.27+780.706L170.27+798.346L157.67+798.346ZM148.37+798.946C145.69+798.946+143.45+798.486+141.65+797.566C139.85+796.646+138.49+795.416+137.57+793.876C136.65+792.336+136.19+790.626+136.19+788.746C136.19+786.626+136.73+784.826+137.81+783.346C138.89+781.866+140.54+780.746+142.76+779.986C144.98+779.226+147.79+778.846+151.19+778.846L158.03+778.846L158.03+785.386L153.35+785.386C151.91+785.386+150.86+785.616+150.2+786.076C149.54+786.536+149.21+787.226+149.21+788.146C149.21+788.906+149.5+789.536+150.08+790.036C150.66+790.536+151.45+790.786+152.45+790.786C153.37+790.786+154.22+790.536+155+790.036C155.78+789.536+156.35+788.746+156.71+787.666L158.45+791.686C157.93+794.126+156.83+795.946+155.15+797.146C153.47+798.346+151.21+798.946+148.37+798.946Z" opacity="1" fill="#236eff"/>
<path d="M187.49+792.946L187.79+776.986L199.13+765.526L215.15+765.526L200.15+781.246L193.37+786.706L187.49+792.946ZM176.15+798.346L176.15+753.826L189.71+753.826L189.71+798.346L176.15+798.346ZM199.85+798.346L190.85+786.946L199.19+776.686L216.23+798.346L199.85+798.346Z" opacity="1" fill="#236eff"/>
<path d="M237.05+798.946C233.05+798.946+229.56+798.206+226.58+796.726C223.6+795.246+221.29+793.216+219.65+790.636C218.01+788.056+217.19+785.146+217.19+781.906C217.19+778.586+218+775.646+219.62+773.086C221.24+770.526+223.46+768.526+226.28+767.086C229.1+765.646+232.27+764.926+235.79+764.926C239.03+764.926+242.02+765.566+244.76+766.846C247.5+768.126+249.7+770.026+251.36+772.546C253.02+775.066+253.85+778.186+253.85+781.906C253.85+782.386+253.83+782.916+253.79+783.496C253.75+784.076+253.71+784.606+253.67+785.086L228.41+785.086L228.41+778.546L246.47+778.546L241.37+780.286C241.37+779.006+241.14+777.916+240.68+777.016C240.22+776.116+239.59+775.416+238.79+774.916C237.99+774.416+237.03+774.166+235.91+774.166C234.79+774.166+233.82+774.416+233+774.916C232.18+775.416+231.55+776.116+231.11+777.016C230.67+777.916+230.45+779.006+230.45+780.286L230.45+782.326C230.45+783.726+230.73+784.926+231.29+785.926C231.85+786.926+232.65+787.676+233.69+788.176C234.73+788.676+235.99+788.926+237.47+788.926C238.99+788.926+240.24+788.726+241.22+788.326C242.2+787.926+243.23+787.326+244.31+786.526L251.39+793.666C249.79+795.386+247.82+796.696+245.48+797.596C243.14+798.496+240.33+798.946+237.05+798.946Z" opacity="1" fill="#236eff"/>
<path d="M283.31+810.586C281.51+810.586+279.68+810.316+277.82+809.776C275.96+809.236+274.47+808.526+273.35+807.646L277.85+798.346C278.53+798.866+279.3+799.286+280.16+799.606C281.02+799.926+281.85+800.086+282.65+800.086C283.85+800.086+284.77+799.836+285.41+799.336C286.05+798.836+286.57+798.086+286.97+797.086L288.35+793.606L289.31+792.286L299.81+765.526L312.65+765.526L299.15+799.006C297.95+802.006+296.56+804.346+294.98+806.026C293.4+807.706+291.64+808.886+289.7+809.566C287.76+810.246+285.63+810.586+283.31+810.586ZM286.49+799.846L272.21+765.526L286.13+765.526L295.97+791.086L286.49+799.846Z" opacity="1" fill="#236eff"/>
<path d="M332.09+798.946C328.37+798.946+325.08+798.216+322.22+796.756C319.36+795.296+317.11+793.286+315.47+790.726C313.83+788.166+313.01+785.226+313.01+781.906C313.01+778.586+313.83+775.646+315.47+773.086C317.11+770.526+319.36+768.526+322.22+767.086C325.08+765.646+328.37+764.926+332.09+764.926C335.81+764.926+339.11+765.646+341.99+767.086C344.87+768.526+347.12+770.526+348.74+773.086C350.36+775.646+351.17+778.586+351.17+781.906C351.17+785.226+350.36+788.166+348.74+790.726C347.12+793.286+344.87+795.296+341.99+796.756C339.11+798.216+335.81+798.946+332.09+798.946ZM332.09+788.386C333.09+788.386+333.99+788.146+334.79+787.666C335.59+787.186+336.23+786.456+336.71+785.476C337.19+784.496+337.43+783.306+337.43+781.906C337.43+780.466+337.19+779.276+336.71+778.336C336.23+777.396+335.59+776.686+334.79+776.206C333.99+775.726+333.09+775.486+332.09+775.486C331.09+775.486+330.19+775.726+329.39+776.206C328.59+776.686+327.95+777.396+327.47+778.336C326.99+779.276+326.75+780.466+326.75+781.906C326.75+783.306+326.99+784.496+327.47+785.476C327.95+786.456+328.59+787.186+329.39+787.666C330.19+788.146+331.09+788.386+332.09+788.386Z" opacity="1" fill="#236eff"/>
<path d="M369.11+798.946C366.51+798.946+364.16+798.416+362.06+797.356C359.96+796.296+358.31+794.636+357.11+792.376C355.91+790.116+355.31+787.206+355.31+783.646L355.31+765.526L368.87+765.526L368.87+781.306C368.87+783.626+369.25+785.246+370.01+786.166C370.77+787.086+371.81+787.546+373.13+787.546C373.93+787.546+374.68+787.336+375.38+786.916C376.08+786.496+376.65+785.796+377.09+784.816C377.53+783.836+377.75+782.546+377.75+780.946L377.75+765.526L391.31+765.526L391.31+798.346L378.41+798.346L378.41+788.866L380.99+791.446C379.83+794.006+378.18+795.896+376.04+797.116C373.9+798.336+371.59+798.946+369.11+798.946Z" opacity="1" fill="#236eff"/>
<path d="M397.31+798.346L397.31+765.526L410.21+765.526L410.21+775.426L408.11+772.606C409.11+770.046+410.71+768.126+412.91+766.846C415.11+765.566+417.75+764.926+420.83+764.926L420.83+776.926C420.23+776.846+419.7+776.786+419.24+776.746C418.78+776.706+418.31+776.686+417.83+776.686C415.79+776.686+414.12+777.216+412.82+778.276C411.52+779.336+410.87+781.166+410.87+783.766L410.87+798.346L397.31+798.346Z" opacity="1" fill="#236eff"/>
<path d="M455.51+798.946C452.71+798.946+449.95+798.646+447.23+798.046C444.51+797.446+442.31+796.666+440.63+795.706L444.35+786.766C445.91+787.686+447.72+788.406+449.78+788.926C451.84+789.446+453.85+789.706+455.81+789.706C457.45+789.706+458.56+789.566+459.14+789.286C459.72+789.006+460.01+788.626+460.01+788.146C460.01+787.666+459.67+787.316+458.99+787.096C458.31+786.876+457.41+786.706+456.29+786.586C455.17+786.466+453.94+786.316+452.6+786.136C451.26+785.956+449.91+785.686+448.55+785.326C447.19+784.966+445.95+784.426+444.83+783.706C443.71+782.986+442.81+782.016+442.13+780.796C441.45+779.576+441.11+778.026+441.11+776.146C441.11+774.066+441.74+772.186+443+770.506C444.26+768.826+446.14+767.476+448.64+766.456C451.14+765.436+454.23+764.926+457.91+764.926C460.31+764.926+462.71+765.146+465.11+765.586C467.51+766.026+469.57+766.706+471.29+767.626L467.57+776.566C465.89+775.646+464.24+775.016+462.62+774.676C461+774.336+459.49+774.166+458.09+774.166C456.37+774.166+455.2+774.326+454.58+774.646C453.96+774.966+453.65+775.326+453.65+775.726C453.65+776.206+453.99+776.566+454.67+776.806C455.35+777.046+456.25+777.226+457.37+777.346C458.49+777.466+459.72+777.616+461.06+777.796C462.4+777.976+463.74+778.256+465.08+778.636C466.42+779.016+467.65+779.566+468.77+780.286C469.89+781.006+470.79+781.976+471.47+783.196C472.15+784.416+472.49+785.966+472.49+787.846C472.49+789.806+471.87+791.636+470.63+793.336C469.39+795.036+467.51+796.396+464.99+797.416C462.47+798.436+459.31+798.946+455.51+798.946Z" opacity="1" fill="#236eff"/>
<path d="M494.69+798.946C490.69+798.946+487.2+798.206+484.22+796.726C481.24+795.246+478.93+793.216+477.29+790.636C475.65+788.056+474.83+785.146+474.83+781.906C474.83+778.586+475.64+775.646+477.26+773.086C478.88+770.526+481.1+768.526+483.92+767.086C486.74+765.646+489.91+764.926+493.43+764.926C496.67+764.926+499.66+765.566+502.4+766.846C505.14+768.126+507.34+770.026+509+772.546C510.66+775.066+511.49+778.186+511.49+781.906C511.49+782.386+511.47+782.916+511.43+783.496C511.39+784.076+511.35+784.606+511.31+785.086L486.05+785.086L486.05+778.546L504.11+778.546L499.01+780.286C499.01+779.006+498.78+777.916+498.32+777.016C497.86+776.116+497.23+775.416+496.43+774.916C495.63+774.416+494.67+774.166+493.55+774.166C492.43+774.166+491.46+774.416+490.64+774.916C489.82+775.416+489.19+776.116+488.75+777.016C488.31+777.916+488.09+779.006+488.09+780.286L488.09+782.326C488.09+783.726+488.37+784.926+488.93+785.926C489.49+786.926+490.29+787.676+491.33+788.176C492.37+788.676+493.63+788.926+495.11+788.926C496.63+788.926+497.88+788.726+498.86+788.326C499.84+787.926+500.87+787.326+501.95+786.526L509.03+793.666C507.43+795.386+505.46+796.696+503.12+797.596C500.78+798.496+497.97+798.946+494.69+798.946Z" opacity="1" fill="#236eff"/>
<path d="M515.75+798.346L515.75+765.526L528.65+765.526L528.65+775.426L526.55+772.606C527.55+770.046+529.15+768.126+531.35+766.846C533.55+765.566+536.19+764.926+539.27+764.926L539.27+776.926C538.67+776.846+538.14+776.786+537.68+776.746C537.22+776.706+536.75+776.686+536.27+776.686C534.23+776.686+532.56+777.216+531.26+778.276C529.96+779.336+529.31+781.166+529.31+783.766L529.31+798.346L515.75+798.346Z" opacity="1" fill="#236eff"/>
<path d="M552.41+798.346L539.21+765.526L553.13+765.526L563.15+792.166L556.13+792.166L566.81+765.526L579.65+765.526L566.45+798.346L552.41+798.346Z" opacity="1" fill="#236eff"/>
<path d="M581.75+798.346L581.75+765.526L595.31+765.526L595.31+798.346L581.75+798.346ZM588.53+762.886C586.05+762.886+584.07+762.226+582.59+760.906C581.11+759.586+580.37+757.946+580.37+755.986C580.37+754.026+581.11+752.386+582.59+751.066C584.07+749.746+586.05+749.086+588.53+749.086C591.01+749.086+592.99+749.706+594.47+750.946C595.95+752.186+596.69+753.786+596.69+755.746C596.69+757.826+595.95+759.536+594.47+760.876C592.99+762.216+591.01+762.886+588.53+762.886Z" opacity="1" fill="#236eff"/>
<path d="M618.95+798.946C615.19+798.946+611.85+798.226+608.93+796.786C606.01+795.346+603.72+793.336+602.06+790.756C600.4+788.176+599.57+785.226+599.57+781.906C599.57+778.586+600.4+775.646+602.06+773.086C603.72+770.526+606.01+768.526+608.93+767.086C611.85+765.646+615.19+764.926+618.95+764.926C622.95+764.926+626.37+765.786+629.21+767.506C632.05+769.226+634.01+771.606+635.09+774.646L624.59+779.806C623.91+778.286+623.08+777.186+622.1+776.506C621.12+775.826+620.05+775.486+618.89+775.486C617.89+775.486+616.96+775.726+616.1+776.206C615.24+776.686+614.56+777.396+614.06+778.336C613.56+779.276+613.31+780.466+613.31+781.906C613.31+783.346+613.56+784.546+614.06+785.506C614.56+786.466+615.24+787.186+616.1+787.666C616.96+788.146+617.89+788.386+618.89+788.386C620.05+788.386+621.12+788.046+622.1+787.366C623.08+786.686+623.91+785.586+624.59+784.066L635.09+789.226C634.01+792.266+632.05+794.646+629.21+796.366C626.37+798.086+622.95+798.946+618.95+798.946Z" opacity="1" fill="#236eff"/>
<path d="M656.33+798.946C652.33+798.946+648.84+798.206+645.86+796.726C642.88+795.246+640.57+793.216+638.93+790.636C637.29+788.056+636.47+785.146+636.47+781.906C636.47+778.586+637.28+775.646+638.9+773.086C640.52+770.526+642.74+768.526+645.56+767.086C648.38+765.646+651.55+764.926+655.07+764.926C658.31+764.926+661.3+765.566+664.04+766.846C666.78+768.126+668.98+770.026+670.64+772.546C672.3+775.066+673.13+778.186+673.13+781.906C673.13+782.386+673.11+782.916+673.07+783.496C673.03+784.076+672.99+784.606+672.95+785.086L647.69+785.086L647.69+778.546L665.75+778.546L660.65+780.286C660.65+779.006+660.42+777.916+659.96+777.016C659.5+776.116+658.87+775.416+658.07+774.916C657.27+774.416+656.31+774.166+655.19+774.166C654.07+774.166+653.1+774.416+652.28+774.916C651.46+775.416+650.83+776.116+650.39+777.016C649.95+777.916+649.73+779.006+649.73+780.286L649.73+782.326C649.73+783.726+650.01+784.926+650.57+785.926C651.13+786.926+651.93+787.676+652.97+788.176C654.01+788.676+655.27+788.926+656.75+788.926C658.27+788.926+659.52+788.726+660.5+788.326C661.48+787.926+662.51+787.326+663.59+786.526L670.67+793.666C669.07+795.386+667.1+796.696+664.76+797.596C662.42+798.496+659.61+798.946+656.33+798.946Z" opacity="1" fill="#236eff"/>
<path d="M713.03+798.946C709.27+798.946+705.93+798.226+703.01+796.786C700.09+795.346+697.8+793.336+696.14+790.756C694.48+788.176+693.65+785.226+693.65+781.906C693.65+778.586+694.48+775.646+696.14+773.086C697.8+770.526+700.09+768.526+703.01+767.086C705.93+765.646+709.27+764.926+713.03+764.926C717.03+764.926+720.45+765.786+723.29+767.506C726.13+769.226+728.09+771.606+729.17+774.646L718.67+779.806C717.99+778.286+717.16+777.186+716.18+776.506C715.2+775.826+714.13+775.486+712.97+775.486C711.97+775.486+711.04+775.726+710.18+776.206C709.32+776.686+708.64+777.396+708.14+778.336C707.64+779.276+707.39+780.466+707.39+781.906C707.39+783.346+707.64+784.546+708.14+785.506C708.64+786.466+709.32+787.186+710.18+787.666C711.04+788.146+711.97+788.386+712.97+788.386C714.13+788.386+715.2+788.046+716.18+787.366C717.16+786.686+717.99+785.586+718.67+784.066L729.17+789.226C728.09+792.266+726.13+794.646+723.29+796.366C720.45+798.086+717.03+798.946+713.03+798.946Z" opacity="1" fill="#236eff"/>
<path d="M755.09+764.926C757.61+764.926+759.89+765.436+761.93+766.456C763.97+767.476+765.58+769.066+766.76+771.226C767.94+773.386+768.53+776.186+768.53+779.626L768.53+798.346L754.97+798.346L754.97+781.966C754.97+779.926+754.61+778.476+753.89+777.616C753.17+776.756+752.19+776.326+750.95+776.326C750.03+776.326+749.18+776.536+748.4+776.956C747.62+777.376+747+778.066+746.54+779.026C746.08+779.986+745.85+781.286+745.85+782.926L745.85+798.346L732.29+798.346L732.29+753.826L745.85+753.826L745.85+775.126L742.61+772.366C743.89+769.886+745.62+768.026+747.8+766.786C749.98+765.546+752.41+764.926+755.09+764.926Z" opacity="1" fill="#236eff"/>
<path d="M794.27+798.346L794.27+792.526L793.31+790.966L793.31+779.926C793.31+778.326+792.82+777.106+791.84+776.266C790.86+775.426+789.27+775.006+787.07+775.006C785.59+775.006+784.09+775.236+782.57+775.696C781.05+776.156+779.75+776.786+778.67+777.586L774.35+768.646C776.27+767.446+778.57+766.526+781.25+765.886C783.93+765.246+786.55+764.926+789.11+764.926C794.75+764.926+799.12+766.186+802.22+768.706C805.32+771.226+806.87+775.226+806.87+780.706L806.87+798.346L794.27+798.346ZM784.97+798.946C782.29+798.946+780.05+798.486+778.25+797.566C776.45+796.646+775.09+795.416+774.17+793.876C773.25+792.336+772.79+790.626+772.79+788.746C772.79+786.626+773.33+784.826+774.41+783.346C775.49+781.866+777.14+780.746+779.36+779.986C781.58+779.226+784.39+778.846+787.79+778.846L794.63+778.846L794.63+785.386L789.95+785.386C788.51+785.386+787.46+785.616+786.8+786.076C786.14+786.536+785.81+787.226+785.81+788.146C785.81+788.906+786.1+789.536+786.68+790.036C787.26+790.536+788.05+790.786+789.05+790.786C789.97+790.786+790.82+790.536+791.6+790.036C792.38+789.536+792.95+788.746+793.31+787.666L795.05+791.686C794.53+794.126+793.43+795.946+791.75+797.146C790.07+798.346+787.81+798.946+784.97+798.946Z" opacity="1" fill="#236eff"/>
<path d="M828.59+798.946C824.07+798.946+820.55+797.856+818.03+795.676C815.51+793.496+814.25+790.146+814.25+785.626L814.25+758.146L827.81+758.146L827.81+785.506C827.81+786.506+828.08+787.286+828.62+787.846C829.16+788.406+829.83+788.686+830.63+788.686C831.79+788.686+832.81+788.386+833.69+787.786L836.93+797.206C835.89+797.806+834.64+798.246+833.18+798.526C831.72+798.806+830.19+798.946+828.59+798.946ZM809.75+777.226L809.75+767.326L834.53+767.326L834.53+777.226L809.75+777.226Z" opacity="1" fill="#236eff"/>
<path d="M856.19+798.946C851.67+798.946+848.15+797.856+845.63+795.676C843.11+793.496+841.85+790.146+841.85+785.626L841.85+758.146L855.41+758.146L855.41+785.506C855.41+786.506+855.68+787.286+856.22+787.846C856.76+788.406+857.43+788.686+858.23+788.686C859.39+788.686+860.41+788.386+861.29+787.786L864.53+797.206C863.49+797.806+862.24+798.246+860.78+798.526C859.32+798.806+857.79+798.946+856.19+798.946ZM837.35+777.226L837.35+767.326L862.13+767.326L862.13+777.226L837.35+777.226Z" opacity="1" fill="#236eff"/>
<path d="M875.15+810.586C873.35+810.586+871.52+810.316+869.66+809.776C867.8+809.236+866.31+808.526+865.19+807.646L869.69+798.346C870.37+798.866+871.14+799.286+872+799.606C872.86+799.926+873.69+800.086+874.49+800.086C875.69+800.086+876.61+799.836+877.25+799.336C877.89+798.836+878.41+798.086+878.81+797.086L880.19+793.606L881.15+792.286L891.65+765.526L904.49+765.526L890.99+799.006C889.79+802.006+888.4+804.346+886.82+806.026C885.24+807.706+883.48+808.886+881.54+809.566C879.6+810.246+877.47+810.586+875.15+810.586ZM878.33+799.846L864.05+765.526L877.97+765.526L887.81+791.086L878.33+799.846Z" opacity="1" fill="#236eff"/>
<path d="M925.61+782.266L922.91+756.346L939.11+756.346L936.41+782.266L925.61+782.266ZM931.01+798.946C928.69+798.946+926.79+798.236+925.31+796.816C923.83+795.396+923.09+793.706+923.09+791.746C923.09+789.746+923.83+788.066+925.31+786.706C926.79+785.346+928.69+784.666+931.01+784.666C933.37+784.666+935.28+785.346+936.74+786.706C938.2+788.066+938.93+789.746+938.93+791.746C938.93+793.706+938.2+795.396+936.74+796.816C935.28+798.236+933.37+798.946+931.01+798.946Z" opacity="1" fill="#236eff"/>
</g>
</g>
</svg>
